# xmcd
#
# Track frame offsets: 
#        150
#        2118
#        14082
#        29575
#        38572
#        51263
#        61070
#        75275
#        85373
#        90519
#        100785
#        110085
#        120862
#        136858
#        147349
#        161905
#        176138
#        186905
#        200419
#        210951
#        220489
#        229465
#        231880
#        244720
#        260433
#        271027
#        289135
#        303838
#        314056
#        332926
#        343297
#
# Disc length: 4712 seconds
#
# Revision: 0
# Processed by: cddbd v1.5.2PL0 Copyright (c) Steve Scherf et al.
# Submitted via: ExactAudioCopy v0.95b4
#
DISCID=c512661f
DTITLE=Simon and Garfunkel - The Alternate Bookends
DYEAR=1968
DGENRE=folk rock
TTITLE0=Bookends Theme
TTITLE1=Save the Life of My Child (alternate version)
TTITLE2=America (alternate version)
TTITLE3=Overs
TTITLE4=Groundhog (demo)
TTITLE5=Old Friends (demo)
TTITLE6=Fakin' It (alternate 7" version)
TTITLE7=Punky's Dilemma (demo)
TTITLE8=Mrs Robinson (alternate version)
TTITLE9=A Hazy Shade of Winter (alternate 7" version)
TTITLE10=At the Zoo (alternate version)
TTITLE11=You Don't Know
TTITLE12=America (live)
TTITLE13=Overs (live)
TTITLE14=Old Friends (live)
TTITLE15=Fakin' It (live)
TTITLE16=Punky's Dilemma (live)
TTITLE17=Mrs Robinson (live)
TTITLE18=A Hazy Shade of Winter (live)
TTITLE19=At the Zoo (live)
TTITLE20=You Don't Know Where Your Interest Lies (live)
TTITLE21=Bookends Theme (mono)
TTITLE22=Save the Life of My Child (mono)
TTITLE23=America (mono)
TTITLE24=Overs (mono)
TTITLE25=Old Friends (mono)
TTITLE26=Fakin' It (mono)
TTITLE27=Punky's Dilemma (mono)
TTITLE28=Mrs Robinson (mono)
TTITLE29=A Hazy Shade of Winter (mono)
TTITLE30=At the Zoo (mono)
EXTD=
EXTT0=
EXTT1=
EXTT2=
EXTT3=
EXTT4=
EXTT5=
EXTT6=
EXTT7=
EXTT8=
EXTT9=
EXTT10=
EXTT11=
EXTT12=
EXTT13=
EXTT14=
EXTT15=
EXTT16=
EXTT17=
EXTT18=
EXTT19=
EXTT20=
EXTT21=
EXTT22=
EXTT23=
EXTT24=
EXTT25=
EXTT26=
EXTT27=
EXTT28=
EXTT29=
EXTT30=
PLAYORDER=
